<svg width="104" height="26" viewBox="0 0 104 26" fill="none" xmlns="http://www.w3.org/2000/svg">
<path d="M28.1176 3.19074H25.5789V3.93861H27.3795C27.2904 4.98744 26.4116 5.43473 25.582 5.43473C24.5206 5.43473 23.5944 4.60564 23.5944 3.44353C23.5944 2.31153 24.4773 1.43977 25.5842 1.43977C26.4385 1.43977 26.9417 1.98022 26.9417 1.98022L27.4692 1.43794C27.4692 1.43794 26.7921 0.689697 25.5573 0.689697C23.985 0.689697 22.7687 2.00716 22.7687 3.43011C22.7687 4.82465 23.9129 6.18418 25.5973 6.18418C27.0791 6.18418 28.1637 5.1767 28.1637 3.68668C28.1637 3.37231 28.1176 3.19074 28.1176 3.19074Z" fill="white"/>
<path d="M28.5959 15.2445H34.1744C34.1783 15.2603 34.2752 15.6573 34.2752 16.3341C34.2752 19.6082 31.8921 21.8225 28.6364 21.8225C24.9347 21.8225 22.4205 18.8347 22.4205 15.7707C22.4205 12.6437 25.0934 9.74869 28.5484 9.74881C31.2617 9.74881 32.7494 11.393 32.7494 11.393L31.5903 12.5846C31.5903 12.5846 30.4844 11.3967 28.6076 11.3967C26.1751 11.3967 24.235 13.3125 24.235 15.8C24.235 18.3533 26.2702 20.1753 28.6025 20.1753C30.4255 20.1753 32.3567 19.1924 32.5523 16.8879H28.5959V15.2445Z" fill="white"/>
<path fill-rule="evenodd" clip-rule="evenodd" d="M34.9869 17.9031C34.9869 15.8309 36.6273 14.0544 38.9165 14.0544C40.798 14.0544 42.8385 15.378 42.8385 17.9482C42.8385 20.1906 41.0843 21.8154 38.9431 21.8154C36.5779 21.8154 34.9869 20.0058 34.9869 17.9031ZM41.1315 17.938C41.1315 16.4821 40.0648 15.5785 38.9391 15.5785C37.6743 15.5785 36.7022 16.5825 36.7022 17.9266C36.7022 19.3003 37.6865 20.2922 38.9339 20.2922C40.0693 20.2922 41.1315 19.3629 41.1315 17.938Z" fill="white"/>
<path fill-rule="evenodd" clip-rule="evenodd" d="M47.5553 14.0544C45.2662 14.0544 43.6257 15.8309 43.6257 17.9031C43.6257 20.0058 45.2168 21.8154 47.5822 21.8154C49.7233 21.8154 51.4774 20.1906 51.4774 17.9482C51.4774 15.378 49.4371 14.0544 47.5553 14.0544ZM47.578 15.5785C48.7036 15.5785 49.7704 16.4821 49.7704 17.938C49.7704 19.3629 48.7082 20.2922 47.5727 20.2922C46.3254 20.2922 45.3413 19.3003 45.3413 17.9266C45.3413 16.5825 46.3131 15.5785 47.578 15.5785Z" fill="white"/>
<path fill-rule="evenodd" clip-rule="evenodd" d="M52.2644 17.9358C52.2644 15.8853 53.9161 14.0585 56.017 14.0585C56.9317 14.0585 57.6208 14.4099 58.1246 14.9491V14.2918H59.7634V21.2647C59.7634 24.0044 58.1713 25.3104 56.0822 25.3104C54.1724 25.3104 53.0996 24.1446 52.5665 23.0253L54.0689 22.4018C54.277 22.9019 54.8759 23.7837 56.0698 23.7837C57.3057 23.7837 58.1245 22.9815 58.1245 21.6427V20.8775C57.6872 21.3814 57.0949 21.8205 55.9807 21.8205C54.1791 21.8205 52.2644 20.2716 52.2644 17.9358ZM56.169 15.5796C57.1992 15.5796 58.257 16.4528 58.257 17.9441C58.257 19.4598 57.2014 20.2951 56.1463 20.2951C55.0264 20.2951 53.984 19.3923 53.984 17.9585C53.984 16.4687 55.0665 15.5796 56.169 15.5796Z" fill="white"/>
<path fill-rule="evenodd" clip-rule="evenodd" d="M63.7488 17.9246C63.7488 15.6146 65.4128 14.0491 67.3947 14.0491C68.9578 14.0491 70.1389 15.0842 70.6452 16.3232L70.9174 16.956L65.6761 19.115C65.9892 19.6936 66.4946 20.291 67.5933 20.2911C68.5715 20.2911 69.1578 19.7631 69.5085 19.2228L70.8596 20.1154C70.2538 20.9202 69.2388 21.8183 67.585 21.8183C65.6035 21.8183 63.7488 20.3688 63.7488 17.9246ZM67.4631 15.5417C68.1772 15.5417 68.6911 15.9185 68.9094 16.3705L65.4092 17.8229C65.2584 16.6984 66.3316 15.5417 67.4631 15.5417Z" fill="white"/>
<path d="M62.7993 21.588H61.0777V10.1501H62.7993V21.588Z" fill="white"/>
<path d="M84.1598 21.588H85.8814V10.1501H84.1598V21.588Z" fill="white"/>
<path fill-rule="evenodd" clip-rule="evenodd" d="M76.7519 21.588H75.0303V10.1501L79.1948 10.15C81.2135 10.15 82.8651 11.7896 82.8651 13.7938C82.8651 15.7978 81.2135 17.4374 79.1948 17.4374H76.7519V21.588ZM76.7519 15.7283V11.8591H79.1947C80.2633 11.8591 81.1436 12.733 81.1436 13.7938C81.1436 14.8544 80.2633 15.7283 79.1947 15.7283H76.7519Z" fill="white"/>
<path d="M98.5922 25.3104L103.577 14.0494H101.697L99.4409 19.1452L97.1851 14.0494H95.3048L98.5007 21.2693L96.7119 25.3104H98.5922Z" fill="white"/>
<path fill-rule="evenodd" clip-rule="evenodd" d="M92.9273 21.588H94.6489V17.4742C94.9183 13.2315 89.5001 12.2336 87.45 15.2922L88.8354 16.2151C89.8378 14.4752 92.6983 14.8755 92.8863 16.7401C92.0266 16.5141 91.0979 16.3502 90.2494 16.4354C88.9249 16.5684 87.7909 17.4035 87.6107 18.7712C87.5133 19.5103 87.6795 20.4213 88.1992 20.9765C89.0092 21.8416 90.3389 21.9582 91.4314 21.6626C92.0464 21.4961 92.5306 21.1334 92.9273 20.6647V21.588ZM91.0221 20.1717C91.9644 19.917 92.7071 19.2328 92.9273 18.2816C92.4456 18.1268 92.0024 18.0018 91.4945 17.9409C88.5361 17.4994 89.0314 20.7105 91.0221 20.1717Z" fill="white"/>
<path d="M39.2774 6.07761H38.494V0.872367H39.2774V6.07761Z" fill="white"/>
<path d="M34.1063 6.07761H34.8899V1.65012H36.1759V0.872367H32.8203V1.65012H34.1063V6.07761Z" fill="white"/>
<path d="M31.9942 6.07761H28.9896V0.872367H31.9942V1.65012H29.7731V3.08611H31.7268V3.86386H29.7731V5.29974H31.9942V6.07761Z" fill="white"/>
<path d="M41.9847 6.07761V1.65012H43.2707V0.872367H39.9152V1.65012H41.2013V6.07761H41.9847Z" fill="white"/>
<path fill-rule="evenodd" clip-rule="evenodd" d="M45.2866 3.43011C45.2866 2.00704 46.503 0.689697 48.0754 0.689697C49.6477 0.689697 50.8641 2.00704 50.8641 3.43011C50.8641 4.81343 49.738 6.16236 48.0754 6.1837C46.4127 6.16236 45.2866 4.81343 45.2866 3.43011ZM48.0754 5.43436C47.0243 5.42156 46.1124 4.59661 46.1124 3.44353C46.1124 2.3208 46.9811 1.45403 48.0754 1.44001C49.1698 1.45403 50.0383 2.3208 50.0383 3.44353C50.0383 4.59661 49.1264 5.42156 48.0754 5.43436Z" fill="white"/>
<path d="M52.4302 6.07761H51.6467V0.872367H52.4302L54.9452 4.66198V0.872367H55.7287V6.07761H54.9465L52.4302 2.28605V6.07761Z" fill="white"/>
<path d="M1.37601 7.18228L10.2282 15.9573L1.41851 24.8092C1.16142 24.647 1.0236 24.2958 1.02127 23.8422L0.941431 8.13136C0.938974 7.63457 1.12101 7.33154 1.37601 7.18228Z" fill="white"/>
<path d="M2.38297 7.19411L13.1472 13.0243L10.5943 15.5892L2.00736 7.07693C2.13743 7.09388 2.268 7.1318 2.38297 7.19411Z" fill="white"/>
<path d="M13.6259 18.5944L10.9631 15.9547L13.6232 13.2821L17.2865 15.266C18.1889 15.7545 17.7273 16.3657 17.2865 16.6052L13.6259 18.5944Z" fill="white"/>
<path d="M2.38297 24.7031C2.30166 24.7482 2.22329 24.7836 2.14824 24.8116L10.5969 16.3227L13.1494 18.853L2.38297 24.7031Z" fill="white"/>
</svg>
