<svg width="103" height="27" viewBox="0 0 103 27" fill="none" xmlns="http://www.w3.org/2000/svg">
<path d="M14.9295 0.689697C15.0799 2.04673 14.5382 3.38397 13.7465 4.3669C12.9203 5.33454 11.5987 6.07465 10.3115 5.97933C10.143 4.67356 10.7952 3.28505 11.5253 2.43792C12.3506 1.47658 13.7836 0.740058 14.9295 0.689697Z" fill="white"/>
<path d="M19.1433 8.51793C18.9997 8.60305 16.6191 10.0136 16.6452 12.8904C16.6759 16.3643 19.7069 17.5127 19.7431 17.5244C19.725 17.6054 19.2685 19.1836 18.1316 20.7826C17.1823 22.1927 16.1877 23.5713 14.6079 23.5946C13.8566 23.6123 13.3494 23.3979 12.8208 23.1745C12.2697 22.9417 11.6954 22.699 10.797 22.699C9.84472 22.699 9.24492 22.9497 8.66655 23.1914C8.16609 23.4006 7.68169 23.6031 6.99885 23.6306C5.49425 23.6855 4.34474 22.127 3.36099 20.7295C1.39441 17.8779 -0.136458 12.6934 1.91618 9.16552C2.91079 7.43528 4.72428 6.32106 6.66278 6.29138C7.51641 6.27406 8.33513 6.60065 9.05286 6.88696C9.60172 7.1059 10.0915 7.30129 10.4927 7.30129C10.845 7.30129 11.3211 7.11372 11.8759 6.8951C12.7503 6.55057 13.8204 6.12893 14.9105 6.24282C15.656 6.2644 17.7775 6.53509 19.1462 8.51623L19.1433 8.51793Z" fill="white"/>
<path fill-rule="evenodd" clip-rule="evenodd" d="M30.0406 1.46421H27.9142V7.74519H30.0406C31.9215 7.74519 33.0264 6.58301 33.0264 4.60252C33.0264 2.62639 31.9171 1.46421 30.0406 1.46421ZM28.7034 2.16935V7.04005H29.988C31.4217 7.04005 32.2197 6.1695 32.2197 4.61123C32.2197 3.0399 31.4261 2.16935 29.988 2.16935H28.7034Z" fill="white"/>
<path fill-rule="evenodd" clip-rule="evenodd" d="M36.0747 7.82353C34.812 7.82353 33.9614 6.92252 33.9614 5.48177C33.9614 4.03667 34.812 3.14001 36.0747 3.14001C37.3331 3.14001 38.1836 4.03667 38.1836 5.48177C38.1836 6.92252 37.3331 7.82353 36.0747 7.82353ZM37.4076 5.48177C37.4076 6.54819 36.8815 7.15757 36.0747 7.15757C35.268 7.15757 34.7375 6.54819 34.7375 5.48177C34.7375 4.41535 35.268 3.80597 36.0747 3.80597C36.8815 3.80597 37.4076 4.41535 37.4076 5.48177Z" fill="white"/>
<path d="M43.0033 7.74519H43.7793L45.0508 3.21836H44.2967L43.3847 6.90076H43.3672L42.3325 3.21836H41.5959L40.5656 6.90076H40.548L39.6361 3.21836H38.8775L40.1534 7.74519H40.9295L41.9554 4.24125H41.973L43.0033 7.74519Z" fill="white"/>
<path d="M46.6918 3.21836H45.9727V7.74519H46.7356V5.08132C46.7356 4.31524 47.2047 3.81033 47.9238 3.81033C48.6253 3.81033 48.9717 4.21078 48.9717 4.94203V7.74519H49.7345V4.8071C49.7345 3.77986 49.1558 3.14001 48.1562 3.14001C47.4503 3.14001 46.9636 3.4534 46.7093 3.94091H46.6918V3.21836Z" fill="white"/>
<path d="M51.0423 1.46421V7.74519H51.8052V1.46421H51.0423Z" fill="white"/>
<path fill-rule="evenodd" clip-rule="evenodd" d="M52.9112 5.48177C52.9112 6.92252 53.7618 7.82353 55.0245 7.82353C56.2828 7.82353 57.1334 6.92252 57.1334 5.48177C57.1334 4.03667 56.2828 3.14001 55.0245 3.14001C53.7618 3.14001 52.9112 4.03667 52.9112 5.48177ZM55.0245 7.15757C55.8312 7.15757 56.3574 6.54819 56.3574 5.48177C56.3574 4.41535 55.8312 3.80597 55.0245 3.80597C54.2178 3.80597 53.6872 4.41535 53.6872 5.48177C53.6872 6.54819 54.2178 7.15757 55.0245 7.15757Z" fill="white"/>
<path fill-rule="evenodd" clip-rule="evenodd" d="M59.5329 7.82353C58.6253 7.82353 58.0158 7.27944 58.0158 6.46549C58.0158 5.6907 58.6165 5.2032 59.6688 5.14226L60.9753 5.06826V4.68958C60.9753 4.13678 60.607 3.80597 59.9757 3.80597C59.3882 3.80597 59.0199 4.0802 58.9234 4.52417H58.1868C58.2394 3.74068 58.9146 3.14001 59.9932 3.14001C61.063 3.14001 61.7382 3.71457 61.7382 4.61558V7.74519H61.0148V6.96605H60.9972C60.7254 7.48402 60.1467 7.82353 59.5329 7.82353ZM60.9753 6.02586C60.9753 6.67877 60.4229 7.17933 59.7038 7.17933C59.1558 7.17933 58.7919 6.89641 58.7919 6.46549C58.7919 6.03892 59.1426 5.76905 59.7565 5.72988L60.9753 5.65588V6.02586Z" fill="white"/>
<path fill-rule="evenodd" clip-rule="evenodd" d="M62.7829 5.48177C62.7829 6.90076 63.5721 7.82353 64.7339 7.82353C65.3916 7.82353 65.9133 7.50143 66.2071 6.97911H66.2203V7.74519H66.9481V1.46421H66.1852V3.95397H66.1676C65.8958 3.45776 65.3697 3.14001 64.7164 3.14001C63.5677 3.14001 62.7829 4.06278 62.7829 5.48177ZM64.8786 3.80597C64.0719 3.80597 63.5633 4.45888 63.5633 5.48177C63.5633 6.50901 64.0719 7.15757 64.8786 7.15757C65.6634 7.15757 66.1896 6.49595 66.1896 5.48177C66.1896 4.47194 65.6634 3.80597 64.8786 3.80597Z" fill="white"/>
<path fill-rule="evenodd" clip-rule="evenodd" d="M72.3082 7.82353C71.0455 7.82353 70.1949 6.92252 70.1949 5.48177C70.1949 4.03667 71.0455 3.14001 72.3082 3.14001C73.5665 3.14001 74.4171 4.03667 74.4171 5.48177C74.4171 6.92252 73.5665 7.82353 72.3082 7.82353ZM73.641 5.48177C73.641 6.54819 73.1149 7.15757 72.3082 7.15757C71.5014 7.15757 70.9709 6.54819 70.9709 5.48177C70.9709 4.41535 71.5014 3.80597 72.3082 3.80597C73.1149 3.80597 73.641 4.41535 73.641 5.48177Z" fill="white"/>
<path d="M76.2027 3.21836H75.4837V7.74519H76.2466V5.08132C76.2466 4.31524 76.7157 3.81033 77.4347 3.81033C78.1362 3.81033 78.4826 4.21078 78.4826 4.94203V7.74519H79.2455V4.8071C79.2455 3.77986 78.6668 3.14001 77.6671 3.14001C76.9612 3.14001 76.4745 3.4534 76.2203 3.94091H76.2027V3.21836Z" fill="white"/>
<path d="M83.6629 2.12582H82.9001V3.21836H82.2205V3.8408H82.9001V6.56995C82.9001 7.4405 83.2245 7.78001 84.0619 7.78001C84.2417 7.78001 84.4521 7.76695 84.5442 7.74519V7.10969C84.4916 7.11839 84.3162 7.13145 84.2285 7.13145C83.8383 7.13145 83.6629 6.94428 83.6629 6.53078V3.8408H84.5486V3.21836H83.6629V2.12582Z" fill="white"/>
<path d="M85.6985 1.46421V7.74519H86.4614V5.10744C86.4614 4.32395 86.9305 3.81033 87.689 3.81033C88.4037 3.81033 88.7676 4.24125 88.7676 4.95944V7.74519H89.5305V4.82016C89.5305 3.81033 88.9254 3.14001 87.9258 3.14001C87.233 3.14001 86.7332 3.43599 86.4789 3.94091H86.4614V1.46421H85.6985Z" fill="white"/>
<path fill-rule="evenodd" clip-rule="evenodd" d="M94.5737 6.44808H93.824C93.6968 6.87464 93.2716 7.16627 92.6928 7.16627C91.8729 7.16627 91.3599 6.59607 91.3599 5.72988V5.68635H94.6307V5.39907C94.6307 4.02796 93.8722 3.14001 92.6402 3.14001C91.3819 3.14001 90.5751 4.09325 90.5751 5.49918C90.5751 6.92252 91.3687 7.82353 92.6753 7.82353C93.6705 7.82353 94.4422 7.24027 94.5737 6.44808ZM92.627 3.79727C91.9124 3.79727 91.4126 4.34136 91.3643 5.09438H93.8415C93.824 4.33701 93.3461 3.79727 92.627 3.79727Z" fill="white"/>
<path fill-rule="evenodd" clip-rule="evenodd" d="M35.3021 23.1427L34.1972 19.9019H29.5936L28.4887 23.1427H26.5384L30.8993 11.1518H32.9249L37.2858 23.1427H35.3021ZM30.0707 18.4062L31.8703 13.1461H31.9205L33.7201 18.4062H30.0707Z" fill="white"/>
<path fill-rule="evenodd" clip-rule="evenodd" d="M47.1021 18.7718C47.1021 16.0047 45.629 14.2596 43.3941 14.2596C42.1218 14.2596 41.109 14.8995 40.5901 15.905H40.5566V14.4009H38.8072V26.0345H40.6152V21.7051H40.657C41.1593 22.6774 42.1637 23.2923 43.4276 23.2923C45.6373 23.2923 47.1021 21.539 47.1021 18.7718ZM42.917 21.7716C44.3483 21.7716 45.2439 20.6083 45.2439 18.7718C45.2439 16.9437 44.3483 15.772 42.917 15.772C41.5359 15.772 40.6068 16.9686 40.6068 18.7718C40.6068 20.5916 41.5275 21.7716 42.917 21.7716Z" fill="white"/>
<path fill-rule="evenodd" clip-rule="evenodd" d="M53.4867 14.2596C55.7215 14.2596 57.1947 16.0047 57.1947 18.7718C57.1947 21.539 55.7299 23.2923 53.5201 23.2923C52.2562 23.2923 51.2518 22.6774 50.7496 21.7051H50.7077V26.0345H48.8998V14.4009H50.6491V15.905H50.6826C51.2016 14.8995 52.2144 14.2596 53.4867 14.2596ZM55.3365 18.7718C55.3365 20.6083 54.4409 21.7716 53.0095 21.7716C51.6201 21.7716 50.6994 20.5916 50.6994 18.7718C50.6994 16.9686 51.6285 15.772 53.0095 15.772C54.4409 15.772 55.3365 16.9437 55.3365 18.7718Z" fill="white"/>
<path d="M64.4059 19.8022H62.556C62.6732 21.9711 64.4812 23.3422 67.1597 23.3422C70.0223 23.3422 71.8219 21.9378 71.8219 19.6942C71.8219 17.9408 70.7924 16.952 68.3148 16.3703L66.9839 16.0462C65.427 15.664 64.7909 15.1654 64.7909 14.3178C64.7909 13.2541 65.7869 12.5229 67.2434 12.5229C68.6998 12.5229 69.6959 13.2458 69.8047 14.4424H71.6294C71.5708 12.3733 69.8214 10.9523 67.2685 10.9523C64.6904 10.9523 62.8741 12.3733 62.8741 14.4424C62.8741 16.1127 63.9036 17.1431 66.1218 17.6749L67.687 18.0489C69.2522 18.4311 69.9135 18.9879 69.9135 19.9186C69.9135 20.9905 68.817 21.7716 67.2936 21.7716C65.7032 21.7716 64.5398 20.9905 64.4059 19.8022Z" fill="white"/>
<path d="M76.0385 12.3318H74.2222V14.4009H72.9415V15.8219H74.2222V20.8409C74.2222 22.5278 74.9169 23.2009 76.6998 23.2009C77.1015 23.2009 77.5033 23.1677 77.7042 23.1178V21.6968C77.587 21.7218 77.2941 21.7384 77.1099 21.7384C76.3733 21.7384 76.0385 21.3977 76.0385 20.6415V15.8219H77.7126V14.4009H76.0385V12.3318Z" fill="white"/>
<path fill-rule="evenodd" clip-rule="evenodd" d="M78.9996 18.7718C78.9996 21.5888 80.6569 23.3089 83.1764 23.3089C85.6958 23.3089 87.3531 21.5888 87.3531 18.7718C87.3531 15.9631 85.6874 14.243 83.1764 14.243C80.6653 14.243 78.9996 15.9631 78.9996 18.7718ZM83.1764 21.8298C84.5993 21.8298 85.5117 20.7163 85.5117 18.7718C85.5117 16.8356 84.5909 15.7221 83.1764 15.7221C81.7618 15.7221 80.8411 16.8356 80.8411 18.7718C80.8411 20.7163 81.7618 21.8298 83.1764 21.8298Z" fill="white"/>
<path d="M89.1591 14.4009H90.8834V15.8883H90.9252C91.2182 14.8662 92.005 14.2596 93.0429 14.2596C93.3024 14.2596 93.5284 14.3012 93.6623 14.3261V15.9964C93.52 15.9382 93.2019 15.8966 92.8504 15.8966C91.6869 15.8966 90.9671 16.6694 90.9671 17.9076V23.1427H89.1591V14.4009Z" fill="white"/>
<path fill-rule="evenodd" clip-rule="evenodd" d="M101.026 20.5812H102.742C102.491 22.1767 100.968 23.3151 98.9503 23.3151C96.3639 23.3151 94.7987 21.5784 94.7987 18.8196C94.7987 16.0774 96.389 14.2492 98.875 14.2492C101.319 14.2492 102.842 15.961 102.842 18.6118V19.2267H96.6234V19.3348C96.6234 20.8555 97.5441 21.8609 98.9922 21.8609C100.022 21.8609 100.783 21.3457 101.026 20.5812ZM96.6234 18.0752L101.026 18.0339C101.026 17.6656 100.871 16.9828 100.506 16.6207C100.141 16.2587 99.6044 15.9838 98.875 15.9838C97.4062 15.9838 96.6234 16.958 96.6234 18.0752Z" fill="white"/>
</svg>
